<svg width="211" height="52" viewBox="0 0 211 52" fill="none" xmlns="http://www.w3.org/2000/svg">
<path d="M68.7276 41.498C58.736 41.498 48.7454 41.459 38.7928 41.498C36.4947 41.5259 34.2478 40.8187 32.3799 39.4795C30.512 38.1404 29.1209 36.2394 28.4096 34.054C25.9419 26.7658 23.3943 19.4777 20.8877 12.1916C20.3962 10.5621 19.6129 9.03536 18.5759 7.68581C17.3756 6.21284 15.6449 5.27002 13.7564 5.0603C9.99497 4.59267 6.19455 4.08023 2.4331 3.57072C2.13135 3.56421 1.83033 3.53817 1.53195 3.49278C1.08763 3.42813 0.683841 3.19882 0.400699 2.85035C0.117556 2.50188 -0.0242544 2.05971 0.00340008 1.61157C0.0409462 1.14951 0.259926 0.721122 0.612455 0.420075C0.964984 0.119029 1.42238 -0.0301772 1.88461 0.00508403C3.37322 0.161933 4.82285 0.394771 6.31243 0.553568C9.05485 0.906235 11.7982 1.2589 14.5407 1.65054C16.1473 1.86439 17.683 2.44579 19.0284 3.34957C20.3739 4.25334 21.4928 5.45515 22.2984 6.86162C23.3887 8.81335 24.2688 10.8753 24.9239 13.0128C27.2357 19.6735 29.5085 26.3343 31.8194 32.995C32.2698 34.4592 33.1884 35.7351 34.4341 36.6269C35.6797 37.5186 37.1836 37.9769 38.7149 37.9313C52.2711 37.9703 65.8283 38.0492 79.3845 38.0882C86.0092 38.1272 92.628 38.1272 99.2098 38.1661C100.408 38.2264 101.585 37.8385 102.512 37.0778C103.439 36.3172 104.05 35.2385 104.225 34.052C104.303 33.5815 104.303 32.994 104.578 32.7203C104.853 32.4465 105.479 32.6423 105.949 32.6423H107.791C108.065 32.6423 108.104 32.7203 108.065 32.956C107.871 33.7792 107.752 34.6015 107.556 35.4247C107.102 37.2198 106.061 38.8117 104.599 39.9475C103.136 41.0834 101.336 41.698 99.4846 41.6938L69.6696 41.5759H68.7685C68.7276 41.5759 68.7276 41.5369 68.7276 41.498Z" fill="#00A759"/>
<path d="M37.4996 14.5418C38.1753 14.1841 38.9022 13.933 39.6546 13.7975C40.798 13.5581 41.9834 13.6122 43.1003 13.9548C44.2171 14.2974 45.229 14.9173 46.0416 15.7566C46.3553 16.0314 46.4722 16.0314 46.7469 15.7566C47.7764 14.7455 49.0848 14.0654 50.5038 13.8035C51.9229 13.5417 53.3878 13.7101 54.7104 14.2872C56.0329 14.8643 57.1527 15.8237 57.9259 17.042C58.6991 18.2604 59.0903 19.6821 59.0493 21.1246V29.8613C59.0493 30.251 58.9314 30.3708 58.5398 30.3319C57.5997 30.2929 56.6985 30.2929 55.7574 30.3319C55.3268 30.3319 55.2479 30.214 55.2479 29.8224C55.2479 26.9231 55.2089 24.0238 55.2869 21.1246C55.3153 20.1759 54.9698 19.254 54.3248 18.5577C53.6799 17.8614 52.7872 17.4464 51.8391 17.4021C51.3606 17.3954 50.8857 17.4853 50.4427 17.6666C49.9998 17.8478 49.598 18.1166 49.2615 18.4568C48.9249 18.797 48.6604 19.2016 48.484 19.6465C48.3075 20.0913 48.2227 20.5672 48.2345 21.0456C48.1956 23.9449 48.1956 26.8442 48.2345 29.7435C48.2345 30.214 48.1167 30.328 47.65 30.328C46.7489 30.289 45.8477 30.289 44.9855 30.328C44.5958 30.328 44.515 30.2101 44.515 29.8574V21.0846C44.5356 20.6216 44.4648 20.159 44.3066 19.7233C44.1484 19.2876 43.906 18.8873 43.5931 18.5453C43.2802 18.2033 42.903 17.9263 42.4831 17.73C42.0632 17.5338 41.6087 17.4222 41.1456 17.4016C40.6826 17.381 40.22 17.4518 39.7843 17.61C39.3486 17.7682 38.9483 18.0106 38.6063 18.3235C38.2643 18.6363 37.9873 19.0135 37.7911 19.4334C37.5948 19.8534 37.4832 20.3079 37.4626 20.7709C37.4236 23.791 37.4236 26.8052 37.4626 29.7824C37.4626 30.213 37.3447 30.3309 36.9141 30.3309C35.9737 30.2919 35.0319 30.2919 34.0889 30.3309C33.7752 30.3309 33.6992 30.253 33.6992 29.9412V13.9933C33.6992 13.7186 33.7772 13.6406 34.0519 13.6406C34.992 13.6406 35.9721 13.6796 36.9122 13.6406C37.3019 13.6406 37.4967 13.7186 37.4217 14.1501C37.4701 14.2752 37.4965 14.4077 37.4996 14.5418Z" fill="#00A759"/>
<path d="M82.1286 14.5807C83.0621 14.0745 84.0905 13.7676 85.1487 13.6795C86.1621 13.5991 87.181 13.7397 88.1348 14.0914C89.0887 14.4431 89.9548 14.9976 90.6735 15.7166C90.9872 16.0303 91.1041 15.9913 91.3788 15.6776C92.0628 15.011 92.8722 14.4869 93.7603 14.1355C94.6483 13.7841 95.5973 13.6125 96.5522 13.6306C97.5071 13.6487 98.4488 13.8562 99.3229 14.2411C100.197 14.6259 100.986 15.1804 101.644 15.8725C102.949 17.2318 103.679 19.0424 103.681 20.9267V29.8213C103.681 30.211 103.563 30.2918 103.211 30.2918C102.27 30.2529 101.329 30.2529 100.385 30.2918C100.033 30.2918 99.9149 30.2139 99.9149 29.8213V20.9267C99.9227 20.4661 99.8396 20.0085 99.6705 19.5801C99.5014 19.1516 99.2496 18.7606 98.9294 18.4295C98.2827 17.7607 97.3968 17.3762 96.4667 17.3606C96.0061 17.3528 95.5485 17.4359 95.12 17.605C94.6916 17.7741 94.3006 18.0259 93.9695 18.3461C93.3007 18.9928 92.9162 19.8787 92.9006 20.8088C92.8616 23.787 92.9006 26.7642 92.9006 29.7424C92.9006 30.173 92.8226 30.2909 92.3521 30.2909C91.4509 30.2519 90.5498 30.2519 89.6096 30.2909C89.22 30.2909 89.1001 30.2129 89.1001 29.8203C89.1001 26.8421 89.1391 23.9039 89.1001 20.9257C89.0924 20.4652 88.994 20.0106 88.8106 19.5881C88.6272 19.1655 88.3624 18.7832 88.0312 18.463C87.7001 18.1428 87.3091 17.891 86.8806 17.7219C86.4522 17.5528 85.9946 17.4697 85.534 17.4775C85.0734 17.4852 84.6189 17.5836 84.1964 17.767C83.7738 17.9504 83.3915 18.2152 83.0713 18.5464C82.7511 18.8775 82.4993 19.2685 82.3302 19.697C82.1611 20.1255 82.078 20.583 82.0858 21.0436V29.7443C82.0858 30.2539 81.9289 30.3289 81.5012 30.3289C80.5611 30.2899 79.66 30.2899 78.7199 30.3289C78.4062 30.3289 78.3672 30.2509 78.3672 29.9392V13.9912C78.3672 13.7165 78.4451 13.6016 78.7199 13.6016C79.66 13.6016 80.6001 13.6405 81.5451 13.6016C81.9757 13.6016 82.1725 13.6795 82.0936 14.15C82.0897 14.2679 82.1286 14.3809 82.1286 14.5807Z" fill="#00A759"/>
<path d="M104.617 22.0229V14.1483C104.617 13.7956 104.695 13.6777 105.088 13.6777C106.028 13.7167 107.008 13.6777 107.948 13.6777C108.223 13.6777 108.379 13.7167 108.379 14.0674V30.0163C108.379 30.291 108.301 30.406 107.989 30.406C107.01 30.406 106.03 30.367 105.011 30.406C104.658 30.406 104.621 30.2881 104.621 29.9754C104.656 27.2739 104.617 24.6484 104.617 22.0229Z" fill="#00A759"/>
<path d="M98.7 51.999C98.277 51.9982 97.8585 51.913 97.4689 51.7484C97.0793 51.5838 96.7265 51.3432 96.4311 51.0405C96.1357 50.7378 95.9036 50.3792 95.7486 49.9858C95.5935 49.5923 95.5185 49.1718 95.5279 48.749C95.5305 48.3245 95.6166 47.9047 95.7814 47.5135C95.9462 47.1223 96.1865 46.7674 96.4885 46.469C96.7904 46.1707 97.1482 45.9347 97.5414 45.7746C97.9345 45.6146 98.3554 45.5335 98.7799 45.536C99.2043 45.5386 99.6242 45.6247 100.015 45.7895C100.407 45.9544 100.761 46.1946 101.06 46.4966C101.358 46.7985 101.594 47.1563 101.754 47.5495C101.914 47.9426 101.995 48.3635 101.993 48.788C101.992 49.2165 101.906 49.6406 101.74 50.0353C101.573 50.4301 101.329 50.7876 101.022 51.0867C100.716 51.3859 100.352 51.6207 99.9533 51.7774C99.5545 51.934 99.1283 52.0094 98.7 51.999Z" fill="#00A759"/>
<path d="M41.6221 51.9989C41.1991 51.9981 40.7806 51.9129 40.391 51.7483C40.0014 51.5837 39.6486 51.3431 39.3532 51.0404C39.0578 50.7377 38.8257 50.3792 38.6706 49.9857C38.5156 49.5922 38.4406 49.1717 38.45 48.7489C38.4526 48.3244 38.5387 47.9046 38.7035 47.5134C38.8683 47.1222 39.1086 46.7673 39.4106 46.4689C39.7125 46.1706 40.0703 45.9346 40.4635 45.7745C40.8566 45.6145 41.2775 45.5334 41.7019 45.5359C42.1264 45.5385 42.5463 45.6246 42.9375 45.7895C43.3287 45.9543 43.6836 46.1945 43.9819 46.4965C44.2803 46.7985 44.5162 47.1562 44.6763 47.5494C44.8364 47.9425 44.9175 48.3634 44.9149 48.7879C44.9145 49.2164 44.8285 49.6405 44.6618 50.0352C44.4952 50.43 44.2513 50.7875 43.9445 51.0866C43.6377 51.3858 43.2742 51.6206 42.8754 51.7773C42.4766 51.9339 42.0504 52.0093 41.6221 51.9989Z" fill="#00A759"/>
<path d="M108.339 9.40986C108.334 9.90043 108.14 10.3702 107.797 10.7207C107.453 11.0712 106.988 11.2753 106.497 11.2901C106.253 11.294 106.01 11.2493 105.782 11.1586C105.555 11.0679 105.348 10.933 105.173 10.7618C104.998 10.5906 104.859 10.3864 104.764 10.161C104.668 9.93562 104.618 9.69357 104.617 9.44883C104.622 8.95826 104.816 8.4885 105.159 8.13798C105.502 7.78747 105.968 7.58342 106.458 7.56859C106.703 7.56472 106.946 7.60942 107.174 7.7001C107.401 7.79078 107.608 7.92564 107.783 8.09687C107.958 8.26811 108.097 8.47232 108.192 8.6977C108.288 8.92307 108.337 9.16512 108.339 9.40986Z" fill="#00A759"/>
<path d="M76.6427 20.615V14.0712C76.6427 13.8364 76.6816 13.6406 76.329 13.6406C75.31 13.6796 74.252 13.6406 73.2339 13.6406C72.9601 13.6406 72.9202 13.7585 72.9202 13.9933V15.0123C71.2259 13.9128 69.1907 13.4642 67.1912 13.7495C65.1916 14.0348 63.3631 15.0347 62.0439 16.5642C60.7248 18.0938 60.0043 20.0493 60.0158 22.0691C60.0272 24.0888 60.7699 26.0361 62.1064 27.5505C63.4318 29.0543 65.2557 30.029 67.2425 30.2954C69.2293 30.5617 71.2455 30.1018 72.9202 29.0001V30.0192C72.8812 30.3329 72.9981 30.4088 73.3099 30.3718C74.25 30.3718 75.1911 30.3329 76.1351 30.3718C76.5657 30.3718 76.6836 30.2939 76.6836 29.8623C76.6427 26.7273 76.6427 23.6751 76.6427 20.615ZM68.3365 26.6094C67.4276 26.6055 66.5401 26.3327 65.7859 25.8253C65.0318 25.318 64.4447 24.5987 64.0986 23.7582C63.7526 22.9177 63.663 21.9936 63.8413 21.1023C64.0196 20.211 64.4577 19.3924 65.1004 18.7497C65.7431 18.1069 66.5617 17.6688 67.453 17.4906C68.3443 17.3123 69.2684 17.4018 70.1089 17.7479C70.9494 18.0939 71.6687 18.681 72.1761 19.4352C72.6835 20.1894 72.9563 21.0768 72.9601 21.9858C72.9381 23.2053 72.4438 24.3688 71.5812 25.2312C70.7186 26.0936 69.5551 26.5876 68.3355 26.6094H68.3365Z" fill="#00A759"/>
<path d="M160.91 32.4442H111.776C111.071 32.4442 111.191 32.5222 111.191 31.8597V7.56469C111.191 7.17501 111.269 7.05518 111.701 7.05518H210.238C210.628 7.05518 210.748 7.13311 210.748 7.56469V31.9747C210.748 32.4452 210.591 32.4842 210.199 32.4842C193.743 32.4446 177.313 32.4313 160.91 32.4442Z" fill="#EC3237"/>
<path d="M120.902 16.2224C121.397 16.0053 121.906 15.822 122.426 15.6739C123.317 15.4804 124.241 15.5116 125.117 15.7647C125.992 16.0178 126.791 16.4848 127.441 17.1236C127.636 17.3184 127.716 17.3983 127.99 17.1625C128.765 16.4083 129.742 15.8951 130.802 15.6851C131.863 15.4752 132.962 15.5775 133.966 15.9797C134.97 16.3819 135.835 17.0667 136.457 17.9511C137.08 18.8354 137.432 19.8814 137.472 20.962C137.55 23.3128 137.472 25.7025 137.511 28.0533C137.511 28.328 137.393 28.406 137.158 28.406C136.453 28.406 135.747 28.367 135.042 28.406C134.689 28.406 134.611 28.328 134.611 27.9754V21.2377C134.632 20.6279 134.445 20.0291 134.083 19.5384C133.72 19.0477 133.202 18.6939 132.613 18.5342C132.235 18.4297 131.839 18.4099 131.452 18.4762C131.066 18.5425 130.698 18.6933 130.377 18.9178C130.055 19.1423 129.787 19.435 129.591 19.7751C129.396 20.1151 129.278 20.4941 129.245 20.885C129.168 23.04 129.207 25.195 129.207 27.3499C129.207 28.369 129.207 28.369 128.187 28.369C127.757 28.369 127.325 28.33 126.856 28.369C126.425 28.4079 126.307 28.291 126.307 27.8594C126.346 25.6655 126.307 23.4316 126.307 21.2348C126.331 20.661 126.169 20.0949 125.844 19.6215C125.519 19.148 125.049 18.7928 124.505 18.6093C124.078 18.463 123.622 18.4249 123.177 18.4984C122.731 18.5718 122.311 18.7545 121.954 19.0302C121.597 19.3058 121.314 19.6657 121.13 20.0776C120.946 20.4896 120.867 20.9407 120.9 21.3906C120.9 23.5456 120.861 25.7006 120.9 27.8205C120.9 28.33 120.744 28.405 120.316 28.405C119.676 28.3658 119.035 28.3658 118.396 28.405C118.121 28.405 118.043 28.3271 118.043 28.0523V15.8698C118.043 15.595 118.122 15.5171 118.396 15.5171H120.198C120.823 15.5171 120.823 15.5171 120.902 16.2224Z" fill="#FDFDFD"/>
<path d="M197.465 28.3704H195.114C194.174 28.3788 193.26 28.0584 192.53 27.4646C191.801 26.8709 191.302 26.0411 191.12 25.1185C190.963 24.4521 191.002 24.4132 191.668 24.4132H193.588C193.823 24.4132 193.941 24.4521 194.019 24.7269C194.074 24.9508 194.207 25.148 194.393 25.2841C194.579 25.4202 194.808 25.4864 195.038 25.4712H199.974C200.115 25.4784 200.256 25.4561 200.388 25.4055C200.519 25.3549 200.639 25.2772 200.739 25.1775C200.838 25.0777 200.916 24.9582 200.967 24.8265C201.017 24.6948 201.04 24.554 201.032 24.4132C201.028 24.2741 200.995 24.1374 200.938 24.0108C200.88 23.8842 200.798 23.7703 200.696 23.6757C200.594 23.581 200.474 23.5073 200.344 23.459C200.213 23.4107 200.074 23.3887 199.935 23.3941H195.155C194.215 23.4227 193.296 23.1144 192.564 22.5249C191.831 21.9354 191.333 21.1034 191.161 20.1792C191.062 19.6659 191.069 19.1379 191.181 18.6274C191.293 18.1168 191.507 17.6344 191.812 17.2093C192.116 16.7843 192.503 16.4255 192.95 16.1547C193.397 15.884 193.895 15.707 194.412 15.6345C196.485 15.4386 198.57 15.4386 200.643 15.6345C201.487 15.7588 202.266 16.1619 202.855 16.7797C203.445 17.3975 203.81 18.1946 203.895 19.0443C203.933 19.358 203.895 19.5148 203.542 19.4749C202.837 19.4359 202.131 19.4749 201.426 19.4749C201.191 19.4749 201.073 19.4359 200.995 19.1612C200.938 18.9307 200.799 18.7287 200.605 18.592C200.411 18.4553 200.174 18.3932 199.937 18.4169H195.157C195.011 18.4051 194.865 18.4238 194.727 18.4717C194.589 18.5197 194.462 18.5959 194.356 18.6954C194.249 18.7949 194.164 18.9157 194.106 19.0499C194.048 19.1841 194.019 19.3288 194.021 19.4749C194.017 19.6199 194.045 19.764 194.102 19.8973C194.16 20.0305 194.246 20.1497 194.354 20.2466C194.462 20.3435 194.589 20.4158 194.728 20.4585C194.867 20.5012 195.013 20.5133 195.157 20.4939H199.937C200.486 20.485 201.031 20.5919 201.537 20.8076C202.042 21.0234 202.496 21.3432 202.869 21.7461C203.243 22.149 203.527 22.6261 203.703 23.1462C203.88 23.6664 203.945 24.2179 203.895 24.7649C203.801 25.7567 203.339 26.6772 202.599 27.3447C201.859 28.0121 200.896 28.3778 199.9 28.3695C199.069 28.4094 198.244 28.3704 197.465 28.3704Z" fill="#FDFDFD"/>
<path d="M171.596 15.6355L168.07 18.5737C167.442 19.1222 166.816 19.6707 166.149 20.1802C165.876 20.3751 165.915 20.5329 166.111 20.7648C167.874 23.1545 169.597 25.5452 171.361 27.935C171.479 28.0823 171.584 28.2397 171.674 28.4055H168.5C168.377 28.4161 168.253 28.3924 168.142 28.337C168.032 28.2817 167.938 28.1968 167.873 28.0918L163.879 22.5671C163.722 22.3323 163.604 22.2923 163.408 22.4891C162.86 22.9597 162.115 23.3513 161.84 23.9388C161.675 24.5921 161.649 25.2727 161.763 25.9369V27.974C161.763 28.3266 161.724 28.4445 161.332 28.4445C160.653 28.4053 159.973 28.4053 159.295 28.4445C158.942 28.4445 158.863 28.3266 158.863 28.0139V11.3645C158.863 10.9748 158.981 10.855 159.373 10.894C159.999 10.9332 160.628 10.9332 161.254 10.894C161.644 10.855 161.764 10.9719 161.764 11.4035C161.725 14.1459 161.764 16.9283 161.764 19.6707V20.2192C162.391 19.6707 162.978 19.2002 163.527 18.7306C164.703 17.7515 165.839 16.7714 167.014 15.7923C167.065 15.725 167.129 15.6692 167.204 15.6287C167.278 15.5882 167.36 15.564 167.444 15.5576H171.558C171.579 15.5787 171.592 15.6061 171.596 15.6355Z" fill="#FDFDFD"/>
<path d="M148.136 27.3513C146.772 28.2216 145.133 28.5514 143.538 28.276C141.944 28.0007 140.51 27.1401 139.517 25.8627C138.681 24.7587 138.226 23.4138 138.219 22.0293C138.212 20.6449 138.653 19.2954 139.478 18.183C140.435 16.8692 141.869 15.983 143.472 15.7143C145.059 15.4156 146.7 15.7382 148.056 16.6155L148.134 16.5375C148.212 15.5974 148.213 15.5974 149.114 15.5974H150.681C150.916 15.5974 151.034 15.6364 151.034 15.9111V28.1356C151.034 28.3704 150.956 28.4493 150.72 28.4493C150.015 28.4493 149.309 28.4103 148.604 28.4493C148.214 28.4493 148.095 28.3314 148.134 27.9787C148.154 27.7702 148.155 27.5601 148.136 27.3513Z" fill="#FDFDFD"/>
<path d="M173.485 22.927C173.626 23.4359 173.88 23.9062 174.228 24.3025C174.577 24.6989 175.011 25.0107 175.498 25.2146C175.985 25.4184 176.512 25.5089 177.038 25.4791C177.565 25.4494 178.079 25.3003 178.54 25.043C178.965 24.807 179.338 24.4872 179.637 24.1029C179.755 23.908 179.871 23.908 180.026 24.0249C180.653 24.4555 181.28 24.8871 181.907 25.2787C182.141 25.4356 182.141 25.5535 181.985 25.7882C181.185 26.8463 180.081 27.6346 178.82 28.0478C177.56 28.461 176.203 28.4792 174.932 28.1001C173.768 27.7491 172.727 27.0743 171.932 26.1544C171.137 25.2345 170.62 24.1074 170.441 22.9046C170.262 21.7019 170.429 20.473 170.922 19.3615C171.415 18.25 172.214 17.3016 173.226 16.6271C174.238 15.9525 175.42 15.5796 176.636 15.5519C177.852 15.5241 179.05 15.8427 180.092 16.4703C181.133 17.098 181.975 18.0089 182.518 19.0968C183.061 20.1846 183.284 21.4046 183.16 22.6142C183.121 22.9669 182.926 22.9669 182.69 22.9669H173.956C173.801 22.9342 173.643 22.9207 173.485 22.927Z" fill="#FDFDFD"/>
<path d="M183.941 17.398V12.4996C183.941 12.1469 184.059 12.069 184.372 12.069C185.024 12.1082 185.679 12.1082 186.331 12.069C186.721 12.03 186.841 12.1869 186.802 12.5785C186.763 13.4407 186.802 14.2629 186.802 15.1251C186.802 15.4388 186.881 15.5557 187.233 15.5557C187.939 15.5168 188.605 15.5557 189.31 15.5557C189.584 15.5557 189.741 15.5947 189.7 15.9454C189.661 16.6897 189.7 17.434 189.7 18.1394C189.7 18.3741 189.622 18.4531 189.386 18.4531H187.27C186.957 18.4531 186.8 18.492 186.8 18.8837C186.839 19.9027 186.8 20.9207 186.8 21.9398C186.784 22.831 187.107 23.695 187.704 24.357C188.3 25.019 189.126 25.4295 190.015 25.5054C190.249 25.5444 190.289 25.6233 190.289 25.8191V28.1309C190.289 28.4056 190.171 28.4446 189.937 28.4057C188.349 28.3059 186.854 27.6225 185.74 26.4869C184.626 25.3513 183.972 23.8437 183.902 22.2544C183.902 20.609 183.941 19.0025 183.941 17.396V17.398Z" fill="#FDFDFD"/>
<path d="M151.781 21.9441V15.9108C151.781 15.5971 151.859 15.4802 152.212 15.4802C152.89 15.5193 153.57 15.5193 154.249 15.4802C154.563 15.4802 154.719 15.5581 154.68 15.8699V16.1446C154.641 16.4972 154.757 16.5343 155.032 16.3394C155.872 15.8548 156.808 15.5604 157.775 15.4772C158.127 15.4383 158.245 15.5162 158.245 15.9078C158.206 16.6132 158.245 17.3185 158.245 18.0238C158.245 18.2187 158.245 18.3375 157.971 18.3765C157.053 18.4549 156.2 18.8867 155.594 19.5811C154.987 20.2755 154.674 21.1781 154.719 22.099V27.8196C154.719 28.2502 154.602 28.3681 154.21 28.3291C153.584 28.2899 152.956 28.2899 152.33 28.3291C151.977 28.3291 151.859 28.2512 151.859 27.8586C151.781 25.9403 151.781 23.9422 151.781 21.9441Z" fill="#FDFDFD"/>
<path d="M148.135 21.9825C148.131 22.4461 148.036 22.9045 147.855 23.3312C147.674 23.7579 147.41 24.1444 147.078 24.4686C146.747 24.7927 146.354 25.048 145.924 25.2198C145.493 25.3915 145.033 25.4763 144.569 25.4692C143.866 25.4652 143.18 25.2524 142.598 24.8577C142.017 24.463 141.565 23.9043 141.302 23.2525C141.038 22.6008 140.974 21.8854 141.118 21.1972C141.262 20.5091 141.607 19.8792 142.11 19.3877C142.612 18.8962 143.25 18.5651 143.941 18.4367C144.632 18.3082 145.346 18.3881 145.992 18.6662C146.637 18.9442 147.186 19.408 147.568 19.9985C147.949 20.589 148.147 21.2795 148.135 21.9825Z" fill="#EC3237"/>
<path d="M173.922 19.9837C174.239 19.5048 174.67 19.1119 175.176 18.8401C175.681 18.5683 176.247 18.426 176.821 18.426C177.395 18.426 177.961 18.5683 178.467 18.8401C178.973 19.1119 179.403 19.5048 179.72 19.9837H173.922Z" fill="#EC3237"/>
</svg>
